<svg width="120" height="160" viewBox="0 0 120 160" fill="none" xmlns="http://www.w3.org/2000/svg">
<path d="M60 54.08V84.464C58.3008 83.4848 56.3424 82.88 54.24 82.88C47.8752 82.88 42.72 88.0352 42.72 94.4C42.72 100.765 47.8752 105.92 54.24 105.92C60.6048 105.92 65.76 100.765 65.76 94.4V65.6H77.28V54.08H60ZM54.24 100.16C51.072 100.16 48.48 97.568 48.48 94.4C48.48 91.232 51.072 88.64 54.24 88.64C57.408 88.64 60 91.232 60 94.4C60 97.568 57.408 100.16 54.24 100.16Z" fill="#0B2433"/>
<rect x="2.5" y="2.5" width="115" height="155" rx="7.5" stroke="#0B2433" stroke-width="5"/>
</svg>
