<svg width="120" height="160" viewBox="0 0 120 160" fill="none" xmlns="http://www.w3.org/2000/svg">
<path d="M83.04 51.2H48.48C45.312 51.2 42.72 53.792 42.72 56.96V91.52C42.72 94.688 45.312 97.28 48.48 97.28H83.04C86.208 97.28 88.8 94.688 88.8 91.52V56.96C88.8 53.792 86.208 51.2 83.04 51.2ZM83.04 91.52H48.48V56.96H83.04V91.52ZM36.96 62.72H31.2V103.04C31.2 106.208 33.792 108.8 36.96 108.8H77.28V103.04H36.96V62.72ZM71.52 80V71.36C71.52 69.776 70.224 68.48 68.64 68.48H62.88V82.88H68.64C70.224 82.88 71.52 81.584 71.52 80ZM65.76 71.36H68.64V80H65.76V71.36ZM77.28 77.12H80.16V74.24H77.28V71.36H80.16V68.48H74.4V82.88H77.28V77.12ZM54.24 77.12H57.12C58.704 77.12 60 75.824 60 74.24V71.36C60 69.776 58.704 68.48 57.12 68.48H51.36V82.88H54.24V77.12ZM54.24 71.36H57.12V74.24H54.24V71.36Z" fill="#0B2433"/>
<rect x="2.5" y="2.5" width="115" height="155" rx="7.5" stroke="#0B2433" stroke-width="5"/>
</svg>
